<svg xmlns="http://www.w3.org/2000/svg" viewBox="0 0 780 600" fill="none" role="img" aria-label="Иллюстрация стеклянного бизнес-центра">
<defs>
<linearGradient id="gMain" x1="0" y1="0" x2="0" y2="1"><stop offset="0" stop-color="#eef6ff"/><stop offset="1" stop-color="#cfe4fb"/></linearGradient>
<linearGradient id="gSide" x1="0" y1="0" x2="0" y2="1"><stop offset="0" stop-color="#d8e9fb"/><stop offset="1" stop-color="#bcd6f3"/></linearGradient>
<linearGradient id="gLeft" x1="0" y1="0" x2="0" y2="1"><stop offset="0" stop-color="#f2f8ff"/><stop offset="1" stop-color="#dcebfb"/></linearGradient>
<linearGradient id="gRight" x1="0" y1="0" x2="0" y2="1"><stop offset="0" stop-color="#eef6ff"/><stop offset="1" stop-color="#d6e8fa"/></linearGradient>
<radialGradient id="gSphere" cx="35%" cy="32%" r="75%"><stop offset="0" stop-color="#9fd0ff"/><stop offset="1" stop-color="#6DC67A"/></radialGradient>
<radialGradient id="gSphere2" cx="35%" cy="32%" r="75%"><stop offset="0" stop-color="#bfe2ff"/><stop offset="1" stop-color="#8ec9f7"/></radialGradient>
<linearGradient id="gTree" x1="0" y1="0" x2="0" y2="1"><stop offset="0" stop-color="#8ad79a"/><stop offset="1" stop-color="#6DC67A"/></linearGradient>
</defs>
<circle cx="560" cy="196" r="252" stroke="#63B1F7" stroke-width="1.6" opacity="0.16"/>
<circle cx="560" cy="196" r="192" stroke="#6DC67A" stroke-width="1.6" opacity="0.16"/>
<circle cx="560" cy="196" r="132" stroke="#163A8C" stroke-width="1.6" opacity="0.1"/>
<rect x="120" y="300" width="36" height="172" rx="3" fill="#e4eefb" opacity=".6"/>
<rect x="165" y="250" width="36" height="222" rx="3" fill="#e4eefb" opacity=".6"/>
<rect x="206" y="330" width="36" height="142" rx="3" fill="#e4eefb" opacity=".6"/>
<rect x="250" y="280" width="36" height="192" rx="3" fill="#e4eefb" opacity=".6"/>
<rect x="600" y="310" width="36" height="162" rx="3" fill="#e4eefb" opacity=".6"/>
<rect x="648" y="260" width="36" height="212" rx="3" fill="#e4eefb" opacity=".6"/>
<rect x="690" y="320" width="36" height="152" rx="3" fill="#e4eefb" opacity=".6"/>
<ellipse cx="384" cy="480" rx="320" ry="20" fill="#163A8C" opacity=".07"/>
<rect x="150" y="262" width="104" height="210" rx="5" fill="url(#gLeft)" stroke="#163A8C" stroke-width="1.4" stroke-opacity=".45"/>
<line x1="176" y1="262" x2="176" y2="472" stroke="#ffffff" stroke-width="2" opacity=".85"/><line x1="202" y1="262" x2="202" y2="472" stroke="#ffffff" stroke-width="2" opacity=".85"/><line x1="228" y1="262" x2="228" y2="472" stroke="#ffffff" stroke-width="2" opacity=".85"/><line x1="150" y1="290" x2="254" y2="290" stroke="#bcdcf7" stroke-width="1" opacity=".9"/><line x1="150" y1="318" x2="254" y2="318" stroke="#bcdcf7" stroke-width="1" opacity=".9"/><line x1="150" y1="346" x2="254" y2="346" stroke="#bcdcf7" stroke-width="1" opacity=".9"/><line x1="150" y1="374" x2="254" y2="374" stroke="#bcdcf7" stroke-width="1" opacity=".9"/><line x1="150" y1="402" x2="254" y2="402" stroke="#bcdcf7" stroke-width="1" opacity=".9"/><line x1="150" y1="430" x2="254" y2="430" stroke="#bcdcf7" stroke-width="1" opacity=".9"/><line x1="150" y1="458" x2="254" y2="458" stroke="#bcdcf7" stroke-width="1" opacity=".9"/>
<rect x="494" y="300" width="100" height="172" rx="5" fill="url(#gRight)" stroke="#163A8C" stroke-width="1.4" stroke-opacity=".45"/>
<line x1="519" y1="300" x2="519" y2="472" stroke="#ffffff" stroke-width="2" opacity=".85"/><line x1="544" y1="300" x2="544" y2="472" stroke="#ffffff" stroke-width="2" opacity=".85"/><line x1="569" y1="300" x2="569" y2="472" stroke="#ffffff" stroke-width="2" opacity=".85"/><line x1="494" y1="328" x2="594" y2="328" stroke="#bcdcf7" stroke-width="1" opacity=".9"/><line x1="494" y1="356" x2="594" y2="356" stroke="#bcdcf7" stroke-width="1" opacity=".9"/><line x1="494" y1="384" x2="594" y2="384" stroke="#bcdcf7" stroke-width="1" opacity=".9"/><line x1="494" y1="412" x2="594" y2="412" stroke="#bcdcf7" stroke-width="1" opacity=".9"/><line x1="494" y1="440" x2="594" y2="440" stroke="#bcdcf7" stroke-width="1" opacity=".9"/><line x1="494" y1="468" x2="594" y2="468" stroke="#bcdcf7" stroke-width="1" opacity=".9"/>
<rect x="290" y="118" width="172" height="354" rx="6" fill="url(#gMain)" stroke="#163A8C" stroke-width="1.6" stroke-opacity=".55"/>
<path d="M462 118 L486 150 L486 472 L462 472 Z" fill="url(#gSide)" stroke="#163A8C" stroke-width="1.4" stroke-opacity=".5"/>
<line x1="314" y1="118" x2="314" y2="472" stroke="#ffffff" stroke-width="2" opacity=".85"/><line x1="338" y1="118" x2="338" y2="472" stroke="#ffffff" stroke-width="2" opacity=".85"/><line x1="362" y1="118" x2="362" y2="472" stroke="#ffffff" stroke-width="2" opacity=".85"/><line x1="386" y1="118" x2="386" y2="472" stroke="#ffffff" stroke-width="2" opacity=".85"/><line x1="410" y1="118" x2="410" y2="472" stroke="#ffffff" stroke-width="2" opacity=".85"/><line x1="434" y1="118" x2="434" y2="472" stroke="#ffffff" stroke-width="2" opacity=".85"/><line x1="458" y1="118" x2="458" y2="472" stroke="#ffffff" stroke-width="2" opacity=".85"/><line x1="290" y1="144" x2="462" y2="144" stroke="#bcdcf7" stroke-width="1" opacity=".9"/><line x1="290" y1="170" x2="462" y2="170" stroke="#bcdcf7" stroke-width="1" opacity=".9"/><line x1="290" y1="196" x2="462" y2="196" stroke="#bcdcf7" stroke-width="1" opacity=".9"/><line x1="290" y1="222" x2="462" y2="222" stroke="#bcdcf7" stroke-width="1" opacity=".9"/><line x1="290" y1="248" x2="462" y2="248" stroke="#bcdcf7" stroke-width="1" opacity=".9"/><line x1="290" y1="274" x2="462" y2="274" stroke="#bcdcf7" stroke-width="1" opacity=".9"/><line x1="290" y1="300" x2="462" y2="300" stroke="#bcdcf7" stroke-width="1" opacity=".9"/><line x1="290" y1="326" x2="462" y2="326" stroke="#bcdcf7" stroke-width="1" opacity=".9"/><line x1="290" y1="352" x2="462" y2="352" stroke="#bcdcf7" stroke-width="1" opacity=".9"/><line x1="290" y1="378" x2="462" y2="378" stroke="#bcdcf7" stroke-width="1" opacity=".9"/><line x1="290" y1="404" x2="462" y2="404" stroke="#bcdcf7" stroke-width="1" opacity=".9"/><line x1="290" y1="430" x2="462" y2="430" stroke="#bcdcf7" stroke-width="1" opacity=".9"/><line x1="290" y1="456" x2="462" y2="456" stroke="#bcdcf7" stroke-width="1" opacity=".9"/>
<line x1="462" y1="150" x2="486" y2="182" stroke="#9ec6ee" stroke-width="1" opacity=".7"/>
<line x1="462" y1="176" x2="486" y2="208" stroke="#9ec6ee" stroke-width="1" opacity=".7"/>
<line x1="462" y1="202" x2="486" y2="234" stroke="#9ec6ee" stroke-width="1" opacity=".7"/>
<line x1="462" y1="228" x2="486" y2="260" stroke="#9ec6ee" stroke-width="1" opacity=".7"/>
<line x1="462" y1="254" x2="486" y2="286" stroke="#9ec6ee" stroke-width="1" opacity=".7"/>
<line x1="462" y1="280" x2="486" y2="312" stroke="#9ec6ee" stroke-width="1" opacity=".7"/>
<line x1="462" y1="306" x2="486" y2="338" stroke="#9ec6ee" stroke-width="1" opacity=".7"/>
<line x1="462" y1="332" x2="486" y2="364" stroke="#9ec6ee" stroke-width="1" opacity=".7"/>
<line x1="462" y1="358" x2="486" y2="390" stroke="#9ec6ee" stroke-width="1" opacity=".7"/>
<line x1="462" y1="384" x2="486" y2="416" stroke="#9ec6ee" stroke-width="1" opacity=".7"/>
<line x1="462" y1="410" x2="486" y2="442" stroke="#9ec6ee" stroke-width="1" opacity=".7"/>
<line x1="462" y1="436" x2="486" y2="468" stroke="#9ec6ee" stroke-width="1" opacity=".7"/>
<line x1="462" y1="462" x2="486" y2="494" stroke="#9ec6ee" stroke-width="1" opacity=".7"/>
<rect x="322" y="94" width="108" height="24" rx="4" fill="url(#gMain)" stroke="#163A8C" stroke-width="1.4" stroke-opacity=".5"/>
<line x1="376" y1="60" x2="376" y2="94" stroke="#163A8C" stroke-width="2.4" stroke-opacity=".55"/>
<circle cx="376" cy="58" r="3.4" fill="#FF6B6B"/>
<rect x="290" y="440" width="172" height="32" fill="#bcd9f5" opacity=".85"/>
<rect x="356" y="448" width="40" height="24" rx="2" fill="#163A8C" opacity=".75"/>
<line x1="60" y1="472" x2="708" y2="472" stroke="#163A8C" stroke-width="2" stroke-opacity=".25"/>
<rect x="107" y="456" width="6" height="18" rx="2" fill="#9a7b5a" opacity=".7"/><circle cx="110" cy="442" r="23" fill="url(#gTree)"/><circle cx="94" cy="454" r="15" fill="url(#gTree)" opacity=".9"/><circle cx="126" cy="454" r="15" fill="url(#gTree)" opacity=".9"/>
<rect x="629" y="458" width="6" height="16" rx="2" fill="#9a7b5a" opacity=".7"/><circle cx="632" cy="446" r="20" fill="url(#gTree)"/><circle cx="618" cy="456" r="13" fill="url(#gTree)" opacity=".9"/><circle cx="646" cy="456" r="13" fill="url(#gTree)" opacity=".9"/>
<rect x="267" y="462" width="6" height="11" rx="2" fill="#9a7b5a" opacity=".7"/><circle cx="270" cy="454" r="14" fill="url(#gTree)"/><circle cx="260" cy="461" r="9" fill="url(#gTree)" opacity=".9"/><circle cx="280" cy="461" r="9" fill="url(#gTree)" opacity=".9"/>
<circle cx="500" cy="472" r="12" fill="url(#gTree)" opacity=".85"/>
<circle cx="520" cy="472" r="9" fill="url(#gTree)" opacity=".85"/>
<circle cx="150" cy="472" r="11" fill="url(#gTree)" opacity=".85"/>
<circle cx="168" cy="472" r="8" fill="url(#gTree)" opacity=".85"/>
<circle cx="664" cy="104" r="30" fill="url(#gSphere)" opacity=".9"/>
<circle cx="150" cy="150" r="15" fill="url(#gSphere2)" opacity=".85"/>
<circle cx="64" cy="402" r="2.3" fill="#63B1F7" opacity=".5"/>
<circle cx="64" cy="417" r="2.3" fill="#63B1F7" opacity=".5"/>
<circle cx="64" cy="432" r="2.3" fill="#63B1F7" opacity=".5"/>
<circle cx="64" cy="447" r="2.3" fill="#63B1F7" opacity=".5"/>
<circle cx="79" cy="402" r="2.3" fill="#63B1F7" opacity=".5"/>
<circle cx="79" cy="417" r="2.3" fill="#63B1F7" opacity=".5"/>
<circle cx="79" cy="432" r="2.3" fill="#63B1F7" opacity=".5"/>
<circle cx="79" cy="447" r="2.3" fill="#63B1F7" opacity=".5"/>
<circle cx="94" cy="402" r="2.3" fill="#63B1F7" opacity=".5"/>
<circle cx="94" cy="417" r="2.3" fill="#63B1F7" opacity=".5"/>
<circle cx="94" cy="432" r="2.3" fill="#63B1F7" opacity=".5"/>
<circle cx="94" cy="447" r="2.3" fill="#63B1F7" opacity=".5"/>
<circle cx="109" cy="402" r="2.3" fill="#63B1F7" opacity=".5"/>
<circle cx="109" cy="417" r="2.3" fill="#63B1F7" opacity=".5"/>
<circle cx="109" cy="432" r="2.3" fill="#63B1F7" opacity=".5"/>
<circle cx="109" cy="447" r="2.3" fill="#63B1F7" opacity=".5"/>
<circle cx="124" cy="402" r="2.3" fill="#63B1F7" opacity=".5"/>
<circle cx="124" cy="417" r="2.3" fill="#63B1F7" opacity=".5"/>
<circle cx="124" cy="432" r="2.3" fill="#63B1F7" opacity=".5"/>
<circle cx="124" cy="447" r="2.3" fill="#63B1F7" opacity=".5"/>
</svg>